<svg data-v-423bf9ae="" xmlns="http://www.w3.org/2000/svg" viewBox="0 0 209.74539931401546 198" class="iconAboveSlogan"><!----><!----><!----><g data-v-423bf9ae="" id="016368a4-228d-451b-8cf3-e3747cdf1552" fill="#fff" transform="matrix(4.243281367976305,0,0,4.243281367976305,3.6067877947678966,119.30426836013794)"><path d="M2.11 11.98L2.11 1.86L0.27 1.86L0.27 2.17L1.30 2.52L1.30 11.98C1.30 12.96 0.94 13.44-0.15 13.44C-0.35 13.44-0.66 13.38-0.85 13.33L-0.85 14.03C-0.66 14.08-0.35 14.14-0.15 14.14C1.39 14.14 2.11 13.36 2.11 11.98ZM10.04 7C10.04 4.79 8.83 3.58 7.06 3.58C5.28 3.58 4.07 4.79 4.07 7C4.07 9.20 5.28 10.40 7.06 10.40C8.83 10.40 10.04 9.20 10.04 7ZM9.25 7C9.25 8.76 8.37 9.70 7.06 9.70C5.74 9.70 4.86 8.76 4.86 7C4.86 5.22 5.74 4.28 7.06 4.28C8.37 4.28 9.25 5.22 9.25 7ZM17.32 7C17.32 4.79 16.11 3.58 14.34 3.58C13.85 3.58 13.23 3.67 12.77 3.82L12.77 0L12.00 0L12.00 10.02C12.67 10.22 13.62 10.40 14.34 10.40C16.11 10.40 17.32 9.20 17.32 7ZM16.53 7C16.53 8.76 15.65 9.70 14.34 9.70C13.82 9.70 13.29 9.62 12.77 9.48L12.77 4.51C13.29 4.37 13.82 4.28 14.34 4.28C15.65 4.28 16.53 5.22 16.53 7ZM28.77 7.99C28.77 6.55 27.75 5.61 25.80 5.61C24.42 5.61 23.74 5.00 23.74 4.00C23.74 3.22 24.47 2.44 25.89 2.44C26.71 2.44 27.34 2.53 27.97 2.72L28.38 3.60L28.67 3.60L28.67 2.24C27.79 1.89 27.01 1.72 25.89 1.72C23.94 1.72 22.93 2.81 22.93 4.03C22.93 5.43 23.88 6.41 25.80 6.41C27.22 6.41 27.94 7 27.94 8.02C27.94 8.89 27.23 9.69 25.72 9.69C24.53 9.69 23.72 9.48 22.83 9.17L22.83 9.88C23.72 10.19 24.53 10.40 25.72 10.40C27.78 10.40 28.77 9.23 28.77 7.99ZM35.95 7C35.95 4.79 34.75 3.58 32.97 3.58C32.26 3.58 31.29 3.78 30.58 3.98L30.38 4.03L30.63 4.80L30.63 14L31.40 14L31.40 10.16C31.86 10.32 32.48 10.40 32.97 10.40C34.75 10.40 35.95 9.20 35.95 7ZM35.17 7C35.17 8.76 34.29 9.70 32.97 9.70C32.45 9.70 31.92 9.62 31.40 9.48L31.40 4.51C31.92 4.37 32.45 4.28 32.97 4.28C34.29 4.28 35.17 5.22 35.17 7ZM43.23 7C43.23 4.79 42.03 3.58 40.25 3.58C38.47 3.58 37.27 4.79 37.27 7C37.27 9.20 38.47 10.40 40.25 10.40C42.03 10.40 43.23 9.20 43.23 7ZM42.45 7C42.45 8.76 41.57 9.70 40.25 9.70C38.93 9.70 38.05 8.76 38.05 7C38.05 5.22 38.93 4.28 40.25 4.28C41.57 4.28 42.45 5.22 42.45 7ZM48.58 10.29L48.58 9.59C48.38 9.66 48.08 9.70 47.88 9.70C46.76 9.70 46.38 9.24 46.38 8.26L46.38 4.41L48.58 4.41L48.58 3.72L46.38 3.72L46.38 1.82L45.61 1.93L45.61 3.72L44.21 3.72L44.21 4.41L45.61 4.41L45.61 8.26C45.61 9.63 46.34 10.40 47.88 10.40C48.08 10.40 48.38 10.36 48.58 10.29Z"></path></g><defs data-v-423bf9ae=""><linearGradient data-v-423bf9ae="" gradientTransform="rotate(25)" id="4b3806a0-c692-4a23-a0ef-1830854d0ce1" x1="0%" y1="0%" x2="100%" y2="0%"><stop data-v-423bf9ae="" offset="0%" style="stop-color: rgb(48, 9, 42); stop-opacity: 1;"></stop><stop data-v-423bf9ae="" offset="100%" style="stop-color: rgb(203, 60, 97); stop-opacity: 1;"></stop></linearGradient></defs><g data-v-423bf9ae="" id="d3f44f70-d86a-4f99-bbe6-9ccf34d904d7" transform="matrix(1.0868111504448785,0,0,1.0868111504448785,49.744738109884196,-0.23894260335429607)" stroke="none" fill="url(#4b3806a0-c692-4a23-a0ef-1830854d0ce1)"><g clip-rule="evenodd"><path d="M12.983 10.59l17.018 88.223-5.872-59.049 29.021-1.892-.054-9.883L64.549 1 53.622 18.977z"></path><path d="M59.389 54.548l5.16-53.541-8.74 39.716-19.612 1.045 1.57 20.462-7.766 36.583 12.057-39.899z"></path><path d="M62.8 67.182l.549-10.453-15.979 3.755-.032 11.797-17.337 26.532 21.68-27.616zM65.711 62.394l14.841-4.731 1.509-12.532-15.899 2.095zM72.07 44.502l10.988-1.417 1.581-10.278-8.079-.373L64.549 1l8.43 30.967z"></path><path d="M87.413 31.294l1.256-9.506-9.544-2.694L64.549 1l14.483 22.437-.422 7z"></path></g></g><!----><g data-v-423bf9ae="" id="1b94204b-f4b9-49f8-9406-6e9e805c48d2" fill="#240A14" transform="matrix(0.6336719012508021,0,0,0.6336719012508021,26.382108067664987,219.6095381364979)"><path d="M0.10 3.51C0.10 3.75 0.21 3.77 0.38 3.77L0.88 3.77C0.97 3.77 3.11 10.99 3.14 11.07C3.49 12.14 3.60 12.99 3.91 12.99C4.13 12.99 4.23 12.67 4.51 12.26C4.66 12.05 4.76 12.01 4.90 11.66L6.89 6.45C6.96 6.29 6.99 6.20 7.01 6.20C7.04 6.20 7.07 6.29 7.11 6.45C7.71 8.51 8.39 11.03 8.40 11.07C8.75 12.14 8.86 12.99 9.17 12.99C9.39 12.99 9.49 12.67 9.77 12.26C9.93 12.05 10.02 12.01 10.16 11.66L13.26 4.06C13.36 3.81 13.36 3.77 13.72 3.77C13.96 3.77 14.01 3.71 14.01 3.53C14.01 3.32 13.97 3.26 13.78 3.26C13.64 3.26 13.33 3.30 12.82 3.30C12.08 3.30 11.58 3.26 11.38 3.26C11.20 3.26 11.10 3.28 11.10 3.51C11.10 3.75 11.21 3.77 11.38 3.77L12.29 3.77C12.36 3.77 12.38 3.81 12.38 3.95C12.38 4.63 10.78 8.72 10.07 10.63C9.93 10.99 9.86 11.17 9.81 11.17C9.76 11.17 9.70 10.99 9.58 10.60C9.49 10.30 8.57 7.18 8.04 5.22C7.99 5.05 7.78 4.17 7.78 3.85C7.78 3.81 7.78 3.79 7.80 3.77L8.68 3.77C8.86 3.77 8.96 3.75 8.96 3.56C8.96 3.32 8.92 3.26 8.72 3.26C8.40 3.26 7.46 3.30 7.04 3.30C6.62 3.30 5.71 3.26 5.49 3.26C5.31 3.26 5.21 3.28 5.21 3.51C5.21 3.75 5.32 3.77 5.49 3.77L6.29 3.77C6.33 3.77 6.51 4.27 6.66 4.83C6.72 5.05 6.76 5.15 6.76 5.25C6.76 5.31 6.76 5.38 6.72 5.49L4.72 10.60C4.62 10.82 4.59 10.95 4.55 10.95C4.51 10.95 4.48 10.84 4.40 10.60C4.31 10.32 3.30 7.27 2.70 5.22C2.66 5.08 2.34 3.96 2.32 3.85C2.34 3.77 2.38 3.77 2.42 3.77L3.12 3.77C3.35 3.77 3.42 3.75 3.42 3.56C3.42 3.32 3.37 3.26 3.18 3.26C2.86 3.26 2.14 3.30 1.72 3.30C1.30 3.30 0.60 3.26 0.38 3.26C0.20 3.26 0.10 3.28 0.10 3.51ZM20.24 10.01C20.24 11.68 21.21 12.85 22.97 12.85C24.43 12.85 25.42 11.56 25.42 11.48C25.42 11.45 25.19 11.24 25.14 11.24C25.06 11.24 24.47 12.15 23.30 12.15C22.29 12.15 21.29 11.33 21.29 9.88C21.29 9.72 21.31 9.49 21.34 9.42C21.55 9.42 24.30 9.49 24.46 9.49C24.60 9.49 25.26 9.46 25.26 9.28C25.26 8.09 24.54 7.01 23.13 7.01C21.42 7.01 20.24 8.33 20.24 10.01ZM21.36 9.03C21.42 8.34 22.06 7.41 22.96 7.41C23.39 7.41 24.21 7.70 24.21 8.99C24.21 9.04 24.04 9.03 23.69 9.04C22.99 9.07 21.56 9.10 21.49 9.10C21.38 9.10 21.36 9.09 21.36 9.03ZM43.11 3.51C43.11 3.75 43.15 3.79 43.36 3.79L44.28 3.77C44.34 3.77 44.34 4.47 44.34 5.24L44.34 5.96C44.34 7.70 44.32 12.18 44.21 12.18L43.54 12.18C43.32 12.18 43.25 12.19 43.25 12.39C43.25 12.63 43.26 12.68 43.46 12.68C43.58 12.68 44.56 12.64 44.98 12.64C45.40 12.64 46.27 12.68 46.59 12.68C46.76 12.68 46.79 12.61 46.79 12.40C46.79 12.24 46.76 12.18 46.59 12.18L45.60 12.18C45.56 12.18 45.54 10.60 45.54 9.58L45.54 8.65C45.54 8.57 45.54 8.54 45.64 8.54C46.03 8.54 46.35 8.58 46.86 8.58C48.85 8.58 50.25 7.83 50.25 6.01C50.25 4.09 48.76 3.22 46.84 3.22C46.52 3.22 45.43 3.29 45.01 3.29C44.77 3.29 43.58 3.26 43.36 3.26C43.18 3.26 43.11 3.28 43.11 3.51ZM45.56 8.05L45.56 4.40C45.56 4.05 45.57 3.70 45.61 3.68C45.74 3.67 45.91 3.67 46.05 3.67C47.70 3.67 48.96 4.47 48.96 5.80C48.96 7.57 47.63 8.19 46.05 8.19C45.79 8.19 45.56 8.16 45.56 8.05ZM57.64 7.71C57.64 7.76 57.67 7.76 57.74 7.76C57.78 7.76 58.49 7.73 58.58 7.73C58.66 7.73 58.69 9.20 58.69 10.33C58.69 11.24 58.67 12.21 58.58 12.21L57.96 12.21C57.79 12.21 57.79 12.29 57.79 12.43C57.79 12.59 57.81 12.67 57.97 12.67C58.39 12.67 58.87 12.64 59.22 12.64C59.63 12.64 60.48 12.67 60.75 12.67C60.93 12.67 60.93 12.56 60.93 12.43C60.93 12.29 60.91 12.21 60.75 12.21L59.82 12.21C59.72 12.21 59.70 11.47 59.70 10.68C59.70 9.46 59.81 7.87 60.45 7.87C60.69 7.87 60.97 8.32 61.28 8.32C61.54 8.32 61.85 7.85 61.85 7.69C61.85 7.49 61.46 7.04 61.01 7.04C60.56 7.04 59.99 7.49 59.67 8.26C59.60 8.40 59.61 8.46 59.61 8.23C59.61 7.98 59.63 7.64 59.63 7.42C59.63 7.29 59.63 7.29 59.46 7.29C59.36 7.29 58.46 7.32 57.95 7.34C57.75 7.34 57.72 7.34 57.69 7.45C57.68 7.52 57.64 7.66 57.64 7.71ZM69.23 7.64C69.23 7.70 69.30 7.70 69.36 7.70C69.41 7.70 69.99 7.67 70.03 7.67C70.13 7.67 70.18 7.66 70.20 7.85C70.24 8.88 70.25 9.87 70.25 10.85C70.25 11.14 70.25 12.21 70.21 12.21L69.51 12.21C69.31 12.21 69.30 12.29 69.30 12.43C69.30 12.59 69.30 12.67 69.47 12.67C69.73 12.67 70.41 12.64 70.76 12.64C71.11 12.64 71.69 12.67 71.96 12.67C72.11 12.67 72.13 12.57 72.13 12.43C72.13 12.28 72.13 12.21 71.96 12.21L71.36 12.21C71.29 12.21 71.29 10.04 71.29 9.70L71.29 7.32C71.29 7.24 71.29 7.20 71.15 7.20C71.08 7.20 70.34 7.24 69.57 7.27C69.40 7.27 69.36 7.27 69.30 7.41C69.26 7.52 69.23 7.60 69.23 7.64ZM69.99 4.86C69.99 5.28 70.29 5.47 70.60 5.47C71.01 5.47 71.50 5.15 71.50 4.65C71.50 4.21 71.18 4.05 70.87 4.05C70.52 4.05 69.99 4.33 69.99 4.86ZM79.81 10.04C79.81 11.58 80.98 12.85 82.50 12.85C84.27 12.85 85.30 11.58 85.30 9.84C85.30 8.29 84.28 7.01 82.73 7.01C80.98 7.01 79.81 8.37 79.81 10.04ZM80.89 10.23C80.89 8.69 81.28 7.46 82.56 7.46C83.69 7.46 84.21 8.74 84.21 9.74C84.21 10.92 83.97 12.40 82.50 12.40C81.45 12.40 80.89 11.27 80.89 10.23ZM92.97 7.71C92.97 7.76 93.00 7.76 93.07 7.76C93.11 7.76 93.83 7.73 93.91 7.73C94.00 7.73 94.02 9.20 94.02 10.33C94.02 11.24 94.01 12.21 93.91 12.21L93.30 12.21C93.13 12.21 93.13 12.29 93.13 12.43C93.13 12.59 93.14 12.67 93.31 12.67C93.73 12.67 94.21 12.64 94.56 12.64C94.96 12.64 95.82 12.67 96.08 12.67C96.26 12.67 96.26 12.56 96.26 12.43C96.26 12.29 96.25 12.21 96.08 12.21L95.16 12.21C95.06 12.21 95.03 11.47 95.03 10.68C95.03 9.46 95.14 7.87 95.79 7.87C96.03 7.87 96.31 8.32 96.61 8.32C96.88 8.32 97.19 7.85 97.19 7.69C97.19 7.49 96.80 7.04 96.35 7.04C95.90 7.04 95.33 7.49 95.00 8.26C94.93 8.40 94.95 8.46 94.95 8.23C94.95 7.98 94.96 7.64 94.96 7.42C94.96 7.29 94.96 7.29 94.79 7.29C94.70 7.29 93.80 7.32 93.28 7.34C93.09 7.34 93.06 7.34 93.03 7.45C93.02 7.52 92.97 7.66 92.97 7.71ZM104.57 7.64C104.57 7.70 104.64 7.70 104.69 7.70C104.75 7.70 105.32 7.67 105.36 7.67C105.46 7.67 105.52 7.66 105.53 7.85C105.57 8.88 105.59 9.87 105.59 10.85C105.59 11.14 105.59 12.21 105.55 12.21L104.85 12.21C104.65 12.21 104.64 12.29 104.64 12.43C104.64 12.59 104.64 12.67 104.80 12.67C105.07 12.67 105.74 12.64 106.09 12.64C106.44 12.64 107.03 12.67 107.30 12.67C107.45 12.67 107.46 12.57 107.46 12.43C107.46 12.28 107.46 12.21 107.30 12.21L106.69 12.21C106.62 12.21 106.62 10.04 106.62 9.70L106.62 7.32C106.62 7.24 106.62 7.20 106.48 7.20C106.41 7.20 105.67 7.24 104.90 7.27C104.73 7.27 104.69 7.27 104.64 7.41C104.59 7.52 104.57 7.60 104.57 7.64ZM105.32 4.86C105.32 5.28 105.63 5.47 105.94 5.47C106.34 5.47 106.83 5.15 106.83 4.65C106.83 4.21 106.51 4.05 106.20 4.05C105.85 4.05 105.32 4.33 105.32 4.86ZM115.21 7.78C115.21 7.87 115.23 7.92 115.32 7.92L115.67 7.92C115.79 7.92 115.82 8.19 115.82 8.74C115.82 9.14 115.79 10.77 115.79 11.77C115.79 12.21 116.03 12.77 116.84 12.77C117.33 12.77 118.29 12.36 118.58 12.15C118.65 12.10 118.65 12.08 118.65 12.01C118.65 11.93 118.64 11.80 118.58 11.80C118.44 11.80 117.98 12.03 117.43 12.03C116.83 12.03 116.80 11.63 116.80 11.20L116.80 8.51C116.80 8.15 116.80 7.91 116.86 7.91L118.19 7.91C118.31 7.91 118.36 7.85 118.41 7.66C118.43 7.59 118.45 7.49 118.45 7.43C118.45 7.36 118.43 7.35 118.36 7.35L116.91 7.35C116.80 7.35 116.80 7.35 116.80 7.25C116.80 7.03 116.89 5.95 116.89 5.91C116.89 5.81 116.84 5.74 116.73 5.74C116.66 5.74 116.61 5.78 116.55 5.87L115.28 7.64C115.23 7.69 115.21 7.73 115.21 7.78ZM126.10 7.64C126.10 7.70 126.17 7.70 126.22 7.70C126.28 7.70 126.85 7.67 126.90 7.67C126.99 7.67 127.05 7.66 127.06 7.85C127.11 8.88 127.12 9.87 127.12 10.85C127.12 11.14 127.12 12.21 127.08 12.21L126.38 12.21C126.18 12.21 126.17 12.29 126.17 12.43C126.17 12.59 126.17 12.67 126.34 12.67C126.60 12.67 127.27 12.64 127.62 12.64C127.97 12.64 128.56 12.67 128.83 12.67C128.98 12.67 129.00 12.57 129.00 12.43C129.00 12.28 129.00 12.21 128.83 12.21L128.23 12.21C128.16 12.21 128.16 10.04 128.16 9.70L128.16 7.32C128.16 7.24 128.16 7.20 128.02 7.20C127.95 7.20 127.20 7.24 126.43 7.27C126.27 7.27 126.22 7.27 126.17 7.41C126.13 7.52 126.10 7.60 126.10 7.64ZM126.85 4.86C126.85 5.28 127.16 5.47 127.47 5.47C127.88 5.47 128.37 5.15 128.37 4.65C128.37 4.21 128.04 4.05 127.74 4.05C127.39 4.05 126.85 4.33 126.85 4.86ZM136.75 12.46C136.75 12.64 136.92 12.64 137.10 12.64L141.23 12.64C141.46 12.64 141.48 12.60 141.50 12.39C141.53 11.96 141.57 11.16 141.57 11.06C141.57 11.00 141.55 10.96 141.40 10.96C141.13 10.96 141.15 10.98 141.12 11.17L141.04 11.93C141.02 12.05 141.04 12.12 140.84 12.12L138.40 12.18C138.21 12.18 138.26 11.98 138.35 11.86L141.30 7.52C141.37 7.42 141.44 7.34 141.44 7.25C141.44 7.13 141.27 7.11 141.06 7.11L137.13 7.11C136.91 7.11 136.91 7.15 136.89 7.34C136.85 7.78 136.78 8.47 136.78 8.53C136.78 8.60 136.91 8.60 137.02 8.61C137.20 8.62 137.21 8.57 137.24 8.43L137.38 7.83C137.44 7.59 137.42 7.60 137.73 7.59L139.85 7.52C140 7.52 140.01 7.57 139.89 7.76L136.91 12.15C136.82 12.26 136.75 12.38 136.75 12.46ZM149.20 10.01C149.20 11.68 150.16 12.85 151.93 12.85C153.38 12.85 154.38 11.56 154.38 11.48C154.38 11.45 154.14 11.24 154.10 11.24C154.01 11.24 153.43 12.15 152.25 12.15C151.24 12.15 150.25 11.33 150.25 9.88C150.25 9.72 150.26 9.49 150.29 9.42C150.50 9.42 153.26 9.49 153.41 9.49C153.55 9.49 154.21 9.46 154.21 9.28C154.21 8.09 153.50 7.01 152.08 7.01C150.37 7.01 149.20 8.33 149.20 10.01ZM150.32 9.03C150.37 8.34 151.02 7.41 151.91 7.41C152.35 7.41 153.16 7.70 153.16 8.99C153.16 9.04 152.99 9.03 152.64 9.04C151.94 9.07 150.51 9.10 150.44 9.10C150.33 9.10 150.32 9.09 150.32 9.03ZM172.13 7.91C172.13 11.40 174.50 12.89 177.09 12.89C178.98 12.89 180.98 11.89 180.98 11.58C180.98 11.12 180.99 10.68 180.99 10.33C180.99 9.81 181.01 9.56 181.13 9.56L181.57 9.56C181.71 9.56 181.72 9.39 181.72 9.30C181.72 9.18 181.71 9.06 181.57 9.06C181.34 9.06 180.98 9.10 180.31 9.10C179.86 9.10 179.12 9.07 178.43 9.06C178.29 9.06 178.29 9.24 178.29 9.35C178.29 9.45 178.32 9.56 178.44 9.56L179.66 9.56C179.70 9.56 179.76 9.87 179.76 10.33C179.76 10.82 179.75 11.41 179.72 11.65C179.70 11.76 179.06 12.39 177.48 12.39C175.24 12.39 173.64 10.29 173.64 7.94C173.64 5.42 175.20 3.54 177.20 3.54C179.09 3.54 180.26 4.87 180.26 5.03C180.26 5.15 180.21 6.12 180.21 6.17C180.21 6.31 180.25 6.36 180.52 6.36C180.71 6.36 180.78 6.33 180.78 6.15C180.78 5.43 180.82 3.75 180.82 3.56C180.82 3.36 180.73 3.33 180.52 3.33C180.29 3.33 180.26 3.39 180.26 3.56L180.26 3.91C180.26 3.99 180.22 4.02 180.10 3.92C179.82 3.72 178.82 3.08 177.25 3.08C174.41 3.08 172.13 4.79 172.13 7.91ZM189.53 7.71C189.53 7.76 189.56 7.76 189.63 7.76C189.67 7.76 190.39 7.73 190.47 7.73C190.55 7.73 190.58 9.20 190.58 10.33C190.58 11.24 190.57 12.21 190.47 12.21L189.85 12.21C189.69 12.21 189.69 12.29 189.69 12.43C189.69 12.59 189.70 12.67 189.87 12.67C190.29 12.67 190.76 12.64 191.11 12.64C191.52 12.64 192.37 12.67 192.64 12.67C192.82 12.67 192.82 12.56 192.82 12.43C192.82 12.29 192.81 12.21 192.64 12.21L191.72 12.21C191.62 12.21 191.59 11.47 191.59 10.68C191.59 9.46 191.70 7.87 192.35 7.87C192.58 7.87 192.86 8.32 193.17 8.32C193.44 8.32 193.75 7.85 193.75 7.69C193.75 7.49 193.35 7.04 192.91 7.04C192.46 7.04 191.88 7.49 191.56 8.26C191.49 8.40 191.51 8.46 191.51 8.23C191.51 7.98 191.52 7.64 191.52 7.42C191.52 7.29 191.52 7.29 191.35 7.29C191.25 7.29 190.36 7.32 189.84 7.34C189.64 7.34 189.62 7.34 189.59 7.45C189.57 7.52 189.53 7.66 189.53 7.71ZM201.22 10.04C201.22 11.58 202.38 12.85 203.91 12.85C205.67 12.85 206.71 11.58 206.71 9.84C206.71 8.29 205.69 7.01 204.13 7.01C202.38 7.01 201.22 8.37 201.22 10.04ZM202.30 10.23C202.30 8.69 202.69 7.46 203.97 7.46C205.10 7.46 205.62 8.74 205.62 9.74C205.62 10.92 205.38 12.40 203.91 12.40C202.86 12.40 202.30 11.27 202.30 10.23ZM214.12 7.45C214.12 7.59 214.12 7.67 214.31 7.67L214.54 7.67C214.66 7.67 214.70 7.69 214.76 7.85C215.31 9.45 216.08 11.56 216.22 12.04C216.30 12.31 216.48 12.99 216.69 12.99C216.73 12.99 216.85 12.96 216.90 12.87C217.22 12.29 217.35 12.35 217.57 11.87C217.98 11.03 218.40 9.83 218.75 8.90C218.78 8.83 218.81 8.78 218.83 8.78C218.86 8.78 218.88 8.85 218.90 8.90C219.32 10.14 219.77 11.70 219.87 12.04C219.94 12.31 220.09 12.99 220.33 12.99C220.39 12.99 220.47 12.96 220.53 12.87C220.85 12.32 220.95 12.36 221.17 11.89C221.80 10.57 222.50 8.37 222.80 7.81C222.85 7.70 222.91 7.67 223.01 7.67L223.09 7.67C223.24 7.67 223.27 7.59 223.27 7.45C223.27 7.29 223.24 7.21 223.10 7.21C223.01 7.21 222.66 7.24 222.35 7.24C222.07 7.24 221.62 7.21 221.51 7.21C221.33 7.21 221.31 7.31 221.31 7.45C221.31 7.59 221.33 7.67 221.49 7.67L221.97 7.67C222.08 7.67 222.08 7.76 222.08 7.84C222.08 8.15 221.23 10.70 220.92 11.42C220.86 11.55 220.84 11.62 220.81 11.62C220.78 11.62 220.74 11.56 220.68 11.41C220.32 10.49 219.58 7.92 219.55 7.78C219.55 7.73 219.53 7.67 219.67 7.67L219.97 7.67C220.14 7.67 220.18 7.59 220.18 7.45C220.18 7.29 220.18 7.21 219.98 7.21C219.63 7.21 219.34 7.24 218.97 7.24C218.50 7.24 218.27 7.21 217.92 7.21C217.73 7.21 217.73 7.32 217.73 7.45C217.73 7.59 217.74 7.67 217.92 7.67L218.09 7.67C218.30 7.67 218.44 7.69 218.53 7.85C218.58 7.97 218.60 7.98 218.60 8.06C218.60 8.15 218.57 8.25 218.50 8.43C218.20 9.27 217.64 10.64 217.38 11.31C217.32 11.45 217.29 11.54 217.25 11.54C217.22 11.54 217.20 11.49 217.15 11.41C216.76 10.49 215.94 7.87 215.94 7.77C215.94 7.73 215.98 7.67 216.13 7.67L216.51 7.67C216.68 7.67 216.69 7.59 216.69 7.45C216.69 7.29 216.69 7.21 216.50 7.21C216.24 7.21 215.63 7.24 215.28 7.24C214.87 7.24 214.58 7.21 214.31 7.21C214.12 7.21 214.12 7.32 214.12 7.45ZM231.00 7.78C231.00 7.87 231.03 7.92 231.11 7.92L231.46 7.92C231.59 7.92 231.62 8.19 231.62 8.74C231.62 9.14 231.59 10.77 231.59 11.77C231.59 12.21 231.83 12.77 232.64 12.77C233.13 12.77 234.08 12.36 234.37 12.15C234.44 12.10 234.44 12.08 234.44 12.01C234.44 11.93 234.43 11.80 234.37 11.80C234.23 11.80 233.77 12.03 233.23 12.03C232.62 12.03 232.60 11.63 232.60 11.20L232.60 8.51C232.60 8.15 232.60 7.91 232.65 7.91L233.98 7.91C234.11 7.91 234.15 7.85 234.21 7.66C234.22 7.59 234.25 7.49 234.25 7.43C234.25 7.36 234.22 7.35 234.15 7.35L232.71 7.35C232.60 7.35 232.60 7.35 232.60 7.25C232.60 7.03 232.68 5.95 232.68 5.91C232.68 5.81 232.64 5.74 232.53 5.74C232.46 5.74 232.40 5.78 232.34 5.87L231.07 7.64C231.03 7.69 231.00 7.73 231.00 7.78ZM241.71 3.63C241.71 3.77 241.71 3.84 241.79 3.84C241.86 3.84 242.59 3.74 242.62 3.74C242.68 3.74 242.69 3.72 242.70 3.93C242.77 5.19 242.82 7.85 242.82 9.63C242.82 10.60 242.82 12.21 242.76 12.21L242.16 12.21C241.99 12.21 241.95 12.29 241.95 12.43C241.95 12.59 241.95 12.67 242.14 12.67C242.56 12.67 243.03 12.64 243.38 12.64C243.78 12.64 244.31 12.67 244.58 12.67C244.76 12.67 244.76 12.56 244.76 12.43C244.76 12.29 244.76 12.21 244.58 12.21L243.94 12.21C243.88 12.21 243.88 11.54 243.88 10.98C243.88 10.84 243.87 8.29 243.87 8.29C243.87 8.26 243.87 8.22 244.06 8.12C244.34 7.98 244.75 7.83 245.29 7.83C246.20 7.83 246.60 8.62 246.60 9.63C246.60 11.09 246.60 12.21 246.53 12.21L245.85 12.21C245.70 12.21 245.69 12.29 245.69 12.43C245.69 12.59 245.69 12.67 245.88 12.67C246.30 12.67 246.76 12.64 247.11 12.64C247.52 12.64 247.88 12.67 248.15 12.67C248.33 12.67 248.35 12.57 248.35 12.43C248.35 12.29 248.33 12.21 248.15 12.21L247.67 12.21C247.63 12.21 247.63 11.76 247.63 11.27L247.63 10.08C247.63 8.57 247.45 7.17 245.84 7.17C245.24 7.17 244.40 7.49 243.96 7.73C243.85 7.80 243.87 7.78 243.87 7.64C243.87 5.70 243.98 3.47 243.98 3.30C243.98 3.16 243.98 3.11 243.87 3.11C243.77 3.11 242.61 3.25 241.81 3.36C241.72 3.37 241.71 3.40 241.71 3.63Z"></path></g></svg>